<svg width="121" height="86" viewBox="0 0 121 86" fill="none" xmlns="http://www.w3.org/2000/svg">
<path d="M17.1111 2L60.5546 35.4181" stroke="#808080" stroke-width="4"/>
<path d="M102.684 2L59.2407 35.4181" stroke="#808080" stroke-width="4"/>
<path d="M17.1111 19.1375L60.5546 52.5555" stroke="#808080" stroke-width="4"/>
<path d="M102.684 19.1375L59.2408 52.5555" stroke="#808080" stroke-width="4"/>
<path d="M20.5528 80.2722C20.5528 80.4472 20.5528 80.5972 20.5278 80.7722H18.1778V78.4472H16.9028V81.9472H20.2278C19.8528 82.6972 19.0528 83.3722 17.4278 83.8722C17.7528 84.1222 18.1778 84.6472 18.3528 84.9472C21.4278 83.8722 21.9028 82.1722 21.9028 80.2972V78.0722H20.5528V80.2722ZM14.3028 67.8222H19.8778V69.6472H14.3028V67.8222ZM19.8778 64.7222V66.5722H14.3028V64.7222H19.8778ZM20.3028 75.2972C20.5278 75.5972 20.7528 75.9472 20.9528 76.2972L18.9028 76.3972C19.9778 75.3972 21.1278 74.1222 22.0778 72.9972L20.9778 72.4972C20.5528 73.0972 19.9778 73.8222 19.3528 74.5472C19.1028 74.2472 18.8028 73.8972 18.4528 73.5972C19.0528 72.9472 19.7528 72.0722 20.3778 71.2722L19.7278 70.9972H21.6278V63.3722H12.5278V85.1472H14.3028V70.9972H19.0528C18.7028 71.5722 18.1778 72.3222 17.7028 72.9222C17.4528 72.7222 17.2278 72.5472 17.0028 72.3972L16.2278 73.1472C17.1028 73.7472 18.0278 74.6722 18.5778 75.3972C18.2028 75.7972 17.8528 76.1472 17.5028 76.4722L15.9278 76.5472L16.0778 77.7222C17.6528 77.6222 19.5028 77.5222 21.4778 77.3722C21.6028 77.6222 21.6778 77.8722 21.7278 78.0722L22.7778 77.6472C22.5778 76.8972 21.9778 75.7972 21.3028 74.9722L20.3028 75.2972ZM28.5778 81.9472V78.4472H27.3028V80.7722H24.8778V78.0722H23.5028V84.6722H24.8778V81.9472H28.5778ZM25.6278 69.6472V67.8222H31.3778V69.6472H25.6278ZM31.3778 64.7222V66.5722H25.6278V64.7222H31.3778ZM33.1778 63.3722H23.8528V70.9972H25.2028C24.8278 71.5972 24.3028 72.3222 23.8278 72.9472C23.5778 72.7472 23.3278 72.5722 23.0778 72.3972L22.2778 73.0972C23.1528 73.7472 24.1028 74.6472 24.6528 75.3972C24.2528 75.7972 23.8528 76.1722 23.4778 76.4972L22.5778 76.5472L22.8528 77.7222C24.4778 77.5972 26.3778 77.4972 28.3028 77.3472C28.4528 77.6472 28.5528 77.9222 28.6278 78.1722L29.7028 77.7472C29.4778 76.9222 28.7528 75.6972 28.0528 74.8222L27.0028 75.1722C27.2528 75.5222 27.5278 75.8972 27.7528 76.2972C26.7528 76.3472 25.8278 76.3722 24.9528 76.4222C26.0778 75.4222 27.3028 74.1472 28.2778 73.0722L27.1528 72.5722C26.7278 73.1472 26.1278 73.8722 25.4778 74.5472C25.2278 74.2472 24.9278 73.9222 24.6028 73.6222C25.2278 72.9472 25.9528 72.0722 26.6028 71.2222L26.0778 70.9972H31.3778V82.7972C31.3778 83.1222 31.2778 83.2472 30.9528 83.2472C30.6278 83.2722 29.5528 83.2722 28.4528 83.2222C28.7278 83.6972 28.9528 84.5722 29.0528 85.0722C30.6028 85.0722 31.6528 85.0222 32.3028 84.7222C32.9778 84.3972 33.1778 83.8222 33.1778 82.7972V63.3722ZM40.9278 71.5222C40.9528 70.3972 41.0028 69.2472 41.0028 68.0972H47.0528V66.3722H42.7028V62.3472H40.8778V66.3722H36.4778V68.0972H39.1778C39.1028 74.4722 38.8278 80.5472 36.1278 83.8972C36.5778 84.2222 37.2278 84.8222 37.5028 85.2222C39.7528 82.3972 40.5278 78.0972 40.8278 73.2222H44.0278C43.8778 80.1222 43.7028 82.5722 43.2778 83.1472C43.0778 83.4222 42.8778 83.4972 42.5028 83.4722C42.1278 83.4722 41.1778 83.4722 40.1528 83.3972C40.4528 83.8472 40.6278 84.5722 40.6528 85.0722C41.7028 85.1222 42.7528 85.1222 43.3528 85.0722C44.0028 84.9972 44.4528 84.8222 44.8278 84.2722C45.4778 83.4222 45.6528 80.6222 45.8278 72.3972C45.8528 72.1222 45.8528 71.5222 45.8528 71.5222H40.9278ZM47.9278 79.7722C50.9528 81.1722 54.6028 83.4472 56.3278 85.1222L57.5278 83.5222C55.7278 81.8472 52.0528 79.6722 49.0528 78.3472L47.9278 79.7722ZM55.7778 75.5972C54.8528 74.4472 52.8278 72.8972 51.1278 71.8722L49.9278 73.0472C51.6278 74.1222 53.6028 75.7472 54.5028 76.8972L55.7778 75.5972ZM51.6028 62.3222C50.6778 65.6972 48.4778 69.4472 45.9778 71.3972C46.3278 71.8472 46.7528 72.5972 46.9528 73.0972C49.4778 71.0222 51.6028 67.4722 52.6278 64.4472C53.8028 67.5972 55.9778 71.0222 58.4778 73.0472C58.7278 72.4972 59.1278 71.7472 59.4528 71.2722C57.0778 69.5472 54.7778 65.9722 53.4778 62.3222H51.6028ZM83.2278 67.1222C82.4278 65.9472 80.6778 64.1972 79.2528 62.9722L77.8278 63.9472C79.2778 65.2222 80.9778 67.0222 81.7278 68.1972L83.2278 67.1222ZM81.0028 72.5722C80.1528 74.1722 79.0528 75.6972 77.7278 77.1222C77.3028 75.4722 76.9528 73.5472 76.7028 71.4222H83.8528V69.6472H76.5028C76.3028 67.4222 76.2028 65.0222 76.2028 62.5222H74.3028C74.3278 64.9722 74.4278 67.3722 74.6528 69.6472H68.9278V65.2972C70.4528 64.9722 71.9028 64.5722 73.1028 64.1472L71.7778 62.6222C69.4278 63.4972 65.4028 64.3472 61.9028 64.8722C62.1528 65.3222 62.4028 65.9722 62.5028 66.4222C63.9778 66.2222 65.5528 65.9722 67.1028 65.6722V69.6472H61.7528V71.4222H67.1028V75.7972C64.9278 76.2472 62.9028 76.6722 61.4028 76.9222L61.9278 78.7972C63.4278 78.4722 65.2278 78.0472 67.1028 77.6472V82.7222C67.1028 83.1722 66.9528 83.2972 66.5028 83.2972C66.0778 83.3222 64.6028 83.3472 63.0028 83.2722C63.2778 83.7972 63.6028 84.6472 63.7028 85.1472C65.7278 85.1472 67.0778 85.0972 67.8528 84.7972C68.6278 84.4972 68.9278 83.9472 68.9278 82.7472V77.1972C70.4528 76.8472 72.0028 76.4972 73.5278 76.1222L73.4028 74.4472C71.9278 74.7722 70.4028 75.0972 68.9278 75.4222V71.4222H74.8028C75.1278 74.1222 75.6028 76.5972 76.2028 78.6722C74.4278 80.3222 72.3778 81.6972 70.2778 82.7222C70.7528 83.1222 71.2778 83.7472 71.5528 84.1972C73.4278 83.2222 75.2028 81.9722 76.8278 80.5222C77.9778 83.4472 79.4778 85.1972 81.4528 85.1972C83.3278 85.1972 83.9778 83.9972 84.3278 79.8722C83.8028 79.6972 83.1528 79.2722 82.7528 78.8722C82.6028 82.0722 82.3028 83.3472 81.6278 83.3472C80.3778 83.3472 79.2528 81.7472 78.3028 79.1222C80.0528 77.3472 81.5278 75.3722 82.6528 73.2472L81.0028 72.5722ZM91.1528 62.4472C89.9528 66.2972 87.9778 70.0972 85.8278 72.5972C86.1278 73.0472 86.6278 74.0222 86.8028 74.4722C87.6278 73.4972 88.4028 72.3722 89.1528 71.1222V85.1222H90.9278V67.7972C91.6778 66.2222 92.3278 64.5722 92.8778 62.9222L91.1528 62.4472ZM98.4528 65.2222V67.4972H94.9778V65.2222H98.4528ZM94.9778 71.3222V68.8972H98.4528V71.3222H94.9778ZM99.9278 63.7472H93.2528V85.0722H94.9778V72.7722H99.9278V63.7472ZM102.953 71.3222V68.8972H106.628V71.3222H102.953ZM106.628 65.2222V67.4972H102.953V65.2222H106.628ZM108.378 63.7472H101.428V72.7722H106.628V82.6722C106.628 83.1722 106.453 83.3222 105.978 83.3472C105.503 83.3722 103.778 83.3722 102.003 83.3222C102.228 83.7972 102.528 84.6222 102.628 85.0972C104.978 85.0972 106.428 85.0722 107.278 84.7722C108.103 84.4722 108.378 83.8972 108.378 82.6972V63.7472Z" fill="#5A514C"/>
</svg>
